<mxfile host="app.diagrams.net" modified="2024-03-25T11:47:04.526Z" agent="Mozilla/5.0 (Windows NT 10.0; Win64; x64) AppleWebKit/537.36 (KHTML, like Gecko) Chrome/122.0.0.0 Safari/537.36 Edg/122.0.0.0" etag="zHKb73mlGwvMKahioxfa" version="24.1.0" type="github">
  <diagram name="Page-1" id="c4acf3e9-155e-7222-9cf6-157b1a14988f">
    <mxGraphModel dx="788" dy="561" grid="1" gridSize="10" guides="1" tooltips="1" connect="1" arrows="1" fold="1" page="1" pageScale="1" pageWidth="850" pageHeight="1100" background="none" math="0" shadow="0">
      <root>
        <mxCell id="0" />
        <mxCell id="1" parent="0" />
        <mxCell id="pQSvEq8nZic_1JVtmuSm-1" value="管理员" style="shape=umlActor;verticalLabelPosition=bottom;verticalAlign=top;html=1;outlineConnect=0;" vertex="1" parent="1">
          <mxGeometry x="340" y="270" width="30" height="60" as="geometry" />
        </mxCell>
        <mxCell id="pQSvEq8nZic_1JVtmuSm-6" value="用户、成果信息认证" style="ellipse;whiteSpace=wrap;html=1;" vertex="1" parent="1">
          <mxGeometry x="425" y="230" width="95" height="50" as="geometry" />
        </mxCell>
        <mxCell id="pQSvEq8nZic_1JVtmuSm-7" value="数据库管理" style="ellipse;whiteSpace=wrap;html=1;" vertex="1" parent="1">
          <mxGeometry x="425" y="330" width="95" height="50" as="geometry" />
        </mxCell>
        <mxCell id="pQSvEq8nZic_1JVtmuSm-8" value="用户问题回复" style="ellipse;whiteSpace=wrap;html=1;" vertex="1" parent="1">
          <mxGeometry x="390" y="410" width="95" height="50" as="geometry" />
        </mxCell>
        <mxCell id="pQSvEq8nZic_1JVtmuSm-9" value="数据信息统计" style="ellipse;whiteSpace=wrap;html=1;" vertex="1" parent="1">
          <mxGeometry x="250" y="410" width="95" height="50" as="geometry" />
        </mxCell>
      </root>
    </mxGraphModel>
  </diagram>
</mxfile>
